<?xml version="1.0" encoding="UTF-8"?>
<!DOCTYPE svg PUBLIC "-//W3C//DTD SVG 1.1//EN" "http://www.w3.org/Graphics/SVG/1.1/DTD/svg11.dtd">
<svg xmlns="http://www.w3.org/2000/svg" version="1.1" width="310px" height="164px" style="shape-rendering:geometricPrecision; text-rendering:geometricPrecision; image-rendering:optimizeQuality; fill-rule:evenodd; clip-rule:evenodd" xmlns:xlink="http://www.w3.org/1999/xlink">
<g><path style="opacity:0.995" fill="#8e2117" d="M 204.5,-0.5 C 205.167,-0.5 205.833,-0.5 206.5,-0.5C 209.655,9.78816 212.655,20.1215 215.5,30.5C 215.5,31.1667 215.5,31.8333 215.5,32.5C 212.027,31.7575 208.527,31.0909 205,30.5C 201.17,31.2499 197.337,31.9166 193.5,32.5C 196.967,21.4331 200.633,10.4331 204.5,-0.5 Z"/></g>
<g><path style="opacity:0.997" fill="#b4291d" d="M 193.5,32.5 C 189.213,36.45 184.88,40.45 180.5,44.5C 174.417,36.6733 169.084,28.3399 164.5,19.5C 164.833,18.8333 165.167,18.1667 165.5,17.5C 174.86,22.5125 184.194,27.5125 193.5,32.5 Z"/></g>
<g><path style="opacity:0.991" fill="#7e2017" d="M 231.5,46.5 C 231.5,47.1667 231.167,47.5 230.5,47.5C 226.527,41.5273 221.527,36.5273 215.5,32.5C 215.5,31.8333 215.5,31.1667 215.5,30.5C 225.694,26.6013 235.861,22.6013 246,18.5C 246.692,19.0253 247.192,19.6919 247.5,20.5C 242.145,29.2225 236.811,37.8892 231.5,46.5 Z"/></g>
<g><path style="opacity:0.996" fill="#92241b" d="M 201.5,33.5 C 222.232,33.726 231.399,44.0593 229,64.5C 228.727,66.3289 227.893,67.8289 226.5,69C 212.155,69.8328 197.822,69.6661 183.5,68.5C 177.223,50.4585 183.223,38.7918 201.5,33.5 Z"/></g>
<g><path style="opacity:0.994" fill="#641d14" d="M 231.5,46.5 C 241.141,50.3177 250.808,54.151 260.5,58C 261.973,58.7096 262.64,59.8762 262.5,61.5C 251.903,64.1493 241.236,66.4826 230.5,68.5C 230.794,64.9002 231.46,61.4002 232.5,58C 231.46,54.5998 230.794,51.0998 230.5,47.5C 231.167,47.5 231.5,47.1667 231.5,46.5 Z"/></g>
<g><path style="opacity:0.988" fill="#b4271d" d="M 176.5,47.5 C 177.756,47.4614 178.756,47.9614 179.5,49C 177.181,55.0179 176.847,61.1846 178.5,67.5C 169.167,64.5 159.833,61.5 150.5,58.5C 150.33,57.1779 150.663,56.0113 151.5,55C 160.089,52.9417 168.422,50.4417 176.5,47.5 Z"/></g>
<g><path style="opacity:0.939" fill="#575f63" d="M 120.5,58.5 C 123.167,58.5 125.833,58.5 128.5,58.5C 128.5,76.8333 128.5,95.1667 128.5,113.5C 125.289,113.988 122.456,113.321 120,111.5C 101.082,115.929 92.7491,108.263 95,88.5C 98.7644,75.4548 107.098,70.7881 120,74.5C 120.499,69.1771 120.666,63.8437 120.5,58.5 Z M 111.5,80.5 C 114.862,80.0695 117.695,81.0695 120,83.5C 120.831,90.5237 120.664,97.5237 119.5,104.5C 109.627,108.147 104.294,104.647 103.5,94C 103.554,87.8139 106.221,83.3139 111.5,80.5 Z"/></g>
<g><path style="opacity:0.92" fill="#565d61" d="M 33.5,58.5 C 37.534,58.6721 41.534,59.1721 45.5,60C 47.6175,60.2602 49.2842,61.2602 50.5,63C 49.792,65.5886 48.4587,67.7553 46.5,69.5C 34.2037,64.0079 26.3704,67.6745 23,80.5C 21.7189,87.543 22.7189,94.2097 26,100.5C 33.1309,107.139 40.2976,107.139 47.5,100.5C 49.3271,102.5 50.9938,104.667 52.5,107C 43.7905,114.94 34.1238,116.273 23.5,111C 16.0914,104.641 12.4247,96.4746 12.5,86.5C 12.4503,77.1651 15.7836,69.3317 22.5,63C 26.0531,60.8792 29.7197,59.3792 33.5,58.5 Z"/></g>
<g><path style="opacity:0.901" fill="#575f63" d="M 290.5,66.5 C 302.617,64.4468 308.45,69.4468 308,81.5C 306.377,87.9521 302.21,91.2854 295.5,91.5C 285.422,89.7063 281.589,83.7063 284,73.5C 285.694,70.6424 287.861,68.309 290.5,66.5 Z M 301.5,85.5 C 301.915,82.632 300.915,80.4653 298.5,79C 302.037,77.1735 302.371,74.8402 299.5,72C 296.833,71.6667 294.167,71.3333 291.5,71C 301.228,68.3852 305.394,72.2186 304,82.5C 303.148,83.5707 302.315,84.5707 301.5,85.5 Z M 290.5,85.5 C 285.428,81.1398 285.261,76.4732 290,71.5C 290.499,76.1548 290.666,80.8215 290.5,85.5 Z M 294.5,74.5 C 297.674,74.9522 298.007,75.9522 295.5,77.5C 294.614,76.675 294.281,75.675 294.5,74.5 Z M 301.5,85.5 C 299.883,86.9723 297.883,87.639 295.5,87.5C 294.167,87.3333 292.833,87.1667 291.5,87C 290.944,86.6174 290.611,86.1174 290.5,85.5C 291.833,85.5 293.167,85.5 294.5,85.5C 294.605,79.6086 295.605,79.2752 297.5,84.5C 298.689,85.4287 300.022,85.762 301.5,85.5 Z"/></g>
<g><path style="opacity:0.913" fill="#565e62" d="M 225.5,72.5 C 228.697,72.9728 231.863,73.6394 235,74.5C 238.936,71.5205 242.103,72.1872 244.5,76.5C 243.509,77.6652 242.509,78.8319 241.5,80C 242.967,85.5763 242.801,91.0763 241,96.5C 239.5,98 238,99.5 236.5,101C 231.189,102.518 225.855,103.852 220.5,105C 226.147,104.7 231.814,104.7 237.5,105C 244.132,108.097 246.299,113.264 244,120.5C 242.056,123.734 239.222,125.9 235.5,127C 230.5,127.667 225.5,127.667 220.5,127C 211.563,125.668 210.397,122.168 217,116.5C 222.593,120.203 228.427,120.87 234.5,118.5C 237.044,116.608 237.044,114.775 234.5,113C 229.475,112.672 224.475,112.672 219.5,113C 214.2,111.905 212.367,108.738 214,103.5C 215.167,102.333 216.333,101.167 217.5,100C 209.353,91.3765 209.686,83.0432 218.5,75C 220.927,74.0977 223.26,73.2644 225.5,72.5 Z M 224.5,80.5 C 230.24,79.7352 233.573,82.2352 234.5,88C 233.581,93.9332 230.247,96.2665 224.5,95C 219.232,90.1706 219.232,85.3373 224.5,80.5 Z"/></g>
<g><path style="opacity:0.919" fill="#565e62" d="M 71.5,72.5 C 87.3863,73.8915 93.8863,82.5582 91,98.5C 87.9405,111.506 79.7739,116.34 66.5,113C 60.3839,110.549 56.8839,106.049 56,99.5C 53.0295,85.4047 58.1961,76.4047 71.5,72.5 Z M 70.5,80.5 C 76.8616,79.5935 80.6949,82.2602 82,88.5C 83.5584,95.488 81.7251,101.321 76.5,106C 70.6907,107.345 66.8574,105.178 65,99.5C 63.99,93.9358 64.6567,88.6025 67,83.5C 68.1451,82.3636 69.3117,81.3636 70.5,80.5 Z"/></g>
<g><path style="opacity:0.919" fill="#565e62" d="M 147.5,72.5 C 152.422,72.708 157.089,73.8747 161.5,76C 162.211,77.2547 163.044,78.4214 164,79.5C 165.24,87.7573 165.907,96.0906 166,104.5C 167.903,107.171 168.736,110.171 168.5,113.5C 164.599,114.143 161.266,113.143 158.5,110.5C 153.175,113.363 147.508,114.196 141.5,113C 133.648,107.382 132.482,100.549 138,92.5C 143.748,88.239 150.248,86.4057 157.5,87C 156.569,83.0714 154.069,80.9047 150,80.5C 146.46,81.0065 143.293,82.3398 140.5,84.5C 138.461,82.1011 137.295,79.4344 137,76.5C 140.415,74.6441 143.915,73.3108 147.5,72.5 Z M 148.5,94.5 C 151.5,94.5 154.5,94.5 157.5,94.5C 158.562,103.604 154.562,107.438 145.5,106C 143.012,103.373 142.845,100.54 145,97.5C 146.518,96.8366 147.685,95.8366 148.5,94.5 Z"/></g>
<g><path style="opacity:0.88" fill="#575f63" d="M 191.5,72.5 C 199.798,72.39 204.632,76.39 206,84.5C 206.667,93.8333 206.667,103.167 206,112.5C 203.281,113.444 200.448,113.777 197.5,113.5C 197.666,104.161 197.5,94.8274 197,85.5C 196.425,82.2027 194.425,80.536 191,80.5C 188.432,80.9508 186.098,81.9508 184,83.5C 183.667,93.1667 183.333,102.833 183,112.5C 180.281,113.444 177.448,113.777 174.5,113.5C 174.5,100.167 174.5,86.8333 174.5,73.5C 177.908,72.828 180.575,73.828 182.5,76.5C 185.285,74.4317 188.285,73.0984 191.5,72.5 Z"/></g>
<g><path style="opacity:0.917" fill="#565d61" d="M 263.5,72.5 C 279.704,74.1842 286.204,83.1842 283,99.5C 279.411,111.837 271.245,116.337 258.5,113C 252.384,110.549 248.884,106.049 248,99.5C 245.029,85.4047 250.196,76.4047 263.5,72.5 Z M 262.5,80.5 C 268.862,79.5935 272.695,82.2602 274,88.5C 275.618,95.5585 273.784,101.392 268.5,106C 262.137,107.401 258.303,104.901 257,98.5C 255.164,91.185 256.997,85.185 262.5,80.5 Z"/></g>
<g><path style="opacity:0.725" fill="#565e62" d="M 41.5,127.5 C 45.2407,126.599 47.2407,127.932 47.5,131.5C 41.1434,131.266 39.9767,133.6 44,138.5C 45.0113,137.663 46.1779,137.33 47.5,137.5C 47.7153,130.892 50.7153,129.225 56.5,132.5C 59.4057,131.913 61.0724,130.246 61.5,127.5C 62.8333,127.5 64.1667,127.5 65.5,127.5C 65.8333,131.5 66.1667,131.5 66.5,127.5C 67.5,127.5 68.5,127.5 69.5,127.5C 69.3433,128.873 69.51,130.207 70,131.5C 71.6818,131.193 73.3485,130.86 75,130.5C 76.2853,130.95 77.452,131.617 78.5,132.5C 80.8511,130.771 83.5178,130.104 86.5,130.5C 86.7683,133.119 86.435,135.619 85.5,138C 88.4983,141.818 87.4983,143.984 82.5,144.5C 80.0026,143.781 77.6693,142.781 75.5,141.5C 74.8333,132.167 74.1667,132.167 73.5,141.5C 71.1667,140.167 68.8333,140.167 66.5,141.5C 66.6633,139.143 66.4966,136.81 66,134.5C 65.9183,141.726 62.7516,143.392 56.5,139.5C 53.6286,142.113 50.7953,142.113 48,139.5C 42.5155,142.844 39.0155,141.344 37.5,135C 38.0006,131.952 39.3339,129.452 41.5,127.5 Z M 51.5,134.5 C 53.9701,135.36 54.1368,136.694 52,138.5C 50.6658,137.122 50.4991,135.789 51.5,134.5 Z M 59.5,134.5 C 61.3442,135.204 61.8442,136.537 61,138.5C 59.8118,137.437 59.3118,136.103 59.5,134.5 Z"/></g>
<g><path style="opacity:0.655" fill="#545c5f" d="M 92.5,127.5 C 97.7267,126.237 100.56,128.237 101,133.5C 103.321,130.083 105.988,129.75 109,132.5C 111.84,129.629 114.174,129.963 116,133.5C 118.321,130.083 120.988,129.75 124,132.5C 124.953,130.408 126.286,130.075 128,131.5C 128.667,140.833 129.333,140.833 130,131.5C 130.414,131.043 130.914,130.709 131.5,130.5C 135.749,130.666 140.083,130.666 144.5,130.5C 146.029,130.529 147.196,131.196 148,132.5C 150.667,129.833 153.333,129.833 156,132.5C 157.733,130.398 159.733,130.065 162,131.5C 161.022,135.702 162.855,137.702 167.5,137.5C 168.401,141.241 167.068,143.241 163.5,143.5C 163.657,142.127 163.49,140.793 163,139.5C 162.044,140.894 160.711,141.561 159,141.5C 156.667,140.167 154.333,140.167 152,141.5C 150.289,141.561 148.956,140.894 148,139.5C 142.344,143.054 139.178,141.387 138.5,134.5C 137.914,134.709 137.414,135.043 137,135.5C 136.505,137.473 136.338,139.473 136.5,141.5C 132.217,142.011 128.217,141.344 124.5,139.5C 123.389,140.611 122.055,141.278 120.5,141.5C 113.533,140.633 106.699,140.633 100,141.5C 98.013,140.846 96.6797,139.513 96,137.5C 95.51,138.793 95.3433,140.127 95.5,141.5C 94.1667,141.5 92.8333,141.5 91.5,141.5C 91.2256,136.737 91.559,132.07 92.5,127.5 Z M 119.5,134.5 C 121.97,135.36 122.137,136.694 120,138.5C 119.51,137.207 119.343,135.873 119.5,134.5 Z M 142.5,134.5 C 144.199,134.34 145.866,134.506 147.5,135C 146.167,135.667 146.167,136.333 147.5,137C 144.193,139.533 142.527,138.699 142.5,134.5 Z"/></g>
<g><path style="opacity:0.662" fill="#555d60" d="M 173.5,127.5 C 178.27,126.465 181.436,128.131 183,132.5C 185.884,130.541 188.884,129.874 192,130.5C 193.653,130.82 194.653,131.82 195,133.5C 197.395,130.684 200.228,128.684 203.5,127.5C 203.338,129.527 203.505,131.527 204,133.5C 204.899,131.632 206.399,130.632 208.5,130.5C 210.223,131.552 211.89,131.552 213.5,130.5C 214.799,131.09 215.632,132.09 216,133.5C 216.833,132.5 217.667,131.5 218.5,130.5C 219.333,131.5 220.167,132.5 221,133.5C 221.368,132.09 222.201,131.09 223.5,130.5C 224.711,131.39 226.045,131.39 227.5,130.5C 230.396,131.024 231.063,132.524 229.5,135C 230.978,137.039 232.978,137.872 235.5,137.5C 235.66,139.199 235.494,140.866 235,142.5C 234.439,143.022 233.772,143.355 233,143.5C 232.298,142.205 231.631,140.872 231,139.5C 229.534,141.325 227.701,141.825 225.5,141C 224.783,139.348 224.45,137.848 224.5,136.5C 223.05,137.85 222.383,139.516 222.5,141.5C 221.5,141.5 220.5,141.5 219.5,141.5C 219.719,140.325 219.386,139.325 218.5,138.5C 215.57,142.494 213.736,141.828 213,136.5C 211.312,137.325 211.145,138.325 212.5,139.5C 209.629,142.113 206.795,142.113 204,139.5C 203.29,140.973 202.124,141.64 200.5,141.5C 200.808,139.076 200.474,136.743 199.5,134.5C 198.424,136.987 197.09,139.32 195.5,141.5C 193.578,139.997 192.412,137.997 192,135.5C 191.163,137.351 190.329,139.184 189.5,141C 186.852,141.099 184.352,141.265 182,141.5C 180.013,140.846 178.68,139.513 178,137.5C 177.888,140.447 176.388,141.78 173.5,141.5C 173.5,136.833 173.5,132.167 173.5,127.5 Z"/></g>
<g><path style="opacity:0.679" fill="#555d61" d="M 102.5,149.5 C 107.099,149.2 111.599,149.533 116,150.5C 117.67,146.943 119.836,146.609 122.5,149.5C 123.167,149.333 123.833,149.167 124.5,149C 123.167,148.333 123.167,147.667 124.5,147C 125.448,146.517 126.448,146.351 127.5,146.5C 127.34,148.199 127.506,149.866 128,151.5C 129.126,150.056 130.626,149.39 132.5,149.5C 136.027,149.76 139.694,149.926 143.5,150C 145.227,152.904 145.893,156.07 145.5,159.5C 144.167,159.5 142.833,159.5 141.5,159.5C 141.297,150.365 140.63,150.365 139.5,159.5C 137.062,158.381 134.562,158.381 132,159.5C 130.342,159.325 129.009,158.658 128,157.5C 127.29,158.973 126.124,159.64 124.5,159.5C 124.5,157.167 124.5,154.833 124.5,152.5C 123.167,152.5 121.833,152.5 120.5,152.5C 121.199,154.995 122.199,157.328 123.5,159.5C 118.975,159.127 114.308,158.961 109.5,159C 108.167,157 108.167,155 109.5,153C 108.216,152.316 107.049,152.483 106,153.5C 105.505,155.473 105.338,157.473 105.5,159.5C 104.5,159.5 103.5,159.5 102.5,159.5C 102.5,156.167 102.5,152.833 102.5,149.5 Z M 131.5,152.5 C 133.852,153.543 134.019,154.876 132,156.5C 130.232,155.318 130.065,153.985 131.5,152.5 Z"/></g>
<g><path style="opacity:0.666" fill="#575e62" d="M 146.5,146.5 C 147.5,146.5 148.5,146.5 149.5,146.5C 149.372,150.881 149.705,155.215 150.5,159.5C 149.167,159.5 147.833,159.5 146.5,159.5C 146.5,155.167 146.5,150.833 146.5,146.5 Z"/></g>
<g><path style="opacity:0.695" fill="#555d60" d="M 102.5,149.5 C 101.521,152.625 101.187,155.958 101.5,159.5C 100.5,159.5 99.5,159.5 98.5,159.5C 98.5408,155.757 97.8741,155.59 96.5,159C 95.2068,159.49 93.8734,159.657 92.5,159.5C 92.5674,160.959 92.2341,162.292 91.5,163.5C 90.8333,163.5 90.1667,163.5 89.5,163.5C 88.7659,162.292 88.4326,160.959 88.5,159.5C 85.1667,159.5 81.8333,159.5 78.5,159.5C 78.1667,150.167 77.8333,150.167 77.5,159.5C 74.8333,159.5 72.1667,159.5 69.5,159.5C 69.5,155.167 69.5,150.833 69.5,146.5C 70.8333,146.5 72.1667,146.5 73.5,146.5C 73.5,147.5 73.5,148.5 73.5,149.5C 76.7107,149.012 79.544,149.679 82,151.5C 84.2125,150.24 86.7125,149.574 89.5,149.5C 92.0895,149.527 94.5895,149.861 97,150.5C 98.1882,149.437 98.6882,148.103 98.5,146.5C 100.973,146.088 102.306,147.088 102.5,149.5 Z M 92.5,152.5 C 93.5862,152.62 94.2528,153.287 94.5,154.5C 94.1667,155.167 93.8333,155.833 93.5,156.5C 92.5713,155.311 92.238,153.978 92.5,152.5 Z"/></g>
<g><path style="opacity:0.746" fill="#576063" d="M 61.5,145.5 C 62.4959,145.414 63.3292,145.748 64,146.5C 64.499,150.821 64.6657,155.154 64.5,159.5C 60.0114,159.044 55.6781,159.044 51.5,159.5C 51.1667,150.167 50.8333,150.167 50.5,159.5C 46.4454,159.824 42.4454,159.491 38.5,158.5C 38.8403,155.493 38.8403,152.493 38.5,149.5C 41.3938,149.042 43.8938,149.709 46,151.5C 49.0854,148.881 52.2521,148.881 55.5,151.5C 56.8498,150.05 58.5165,149.383 60.5,149.5C 60.4326,148.041 60.7659,146.708 61.5,145.5 Z M 59.5,152.5 C 60.5983,153.601 60.765,154.934 60,156.5C 58.2317,155.318 58.0651,153.985 59.5,152.5 Z"/></g>
</svg>
